<svg xmlns="http://www.w3.org/2000/svg" viewBox="0 0 320 180" width="320" height="180">
  
  
  <line x1="0" y1="152" x2="320" y2="152" stroke="#cccccc" stroke-width="1"></line>
  
  <rect x="36" y="110" width="260" height="14" fill="#e6e9ee" stroke="#16264a" stroke-width="2"></rect>
  
  <line x1="36" y1="110" x2="36" y2="98" stroke="#16264a" stroke-width="2"></line>
  <line x1="100" y1="110" x2="100" y2="98" stroke="#16264a" stroke-width="2"></line>
  <line x1="160" y1="110" x2="160" y2="98" stroke="#16264a" stroke-width="2"></line>
  <line x1="220" y1="110" x2="220" y2="98" stroke="#16264a" stroke-width="2"></line>
  <line x1="280" y1="110" x2="280" y2="98" stroke="#16264a" stroke-width="2"></line>
  <line x1="36" y1="98" x2="280" y2="98" stroke="#16264a" stroke-width="2"></line>
  
  <line x1="296" y1="110" x2="316" y2="124" stroke="#16264a" stroke-width="2"></line>
  <line x1="296" y1="124" x2="316" y2="124" stroke="#16264a" stroke-width="2"></line>
  
  <line x1="36" y1="120" x2="6" y2="148" stroke="#16264a" stroke-width="2"></line>
  <rect x="0" y="142" width="14" height="10" fill="#16264a"></rect>
  
  <circle cx="130" cy="146" r="14" fill="#16264a"></circle>
  <circle cx="130" cy="146" r="5" fill="#f4f6f9"></circle>
  <circle cx="190" cy="146" r="14" fill="#16264a"></circle>
  <circle cx="190" cy="146" r="5" fill="#f4f6f9"></circle>
  
  <path d="M112 124 L112 132 L148 132 L148 124" fill="#e6e9ee" stroke="#16264a" stroke-width="1.5"></path>
  <path d="M172 124 L172 132 L208 132 L208 124" fill="#e6e9ee" stroke="#16264a" stroke-width="1.5"></path>
  
  <text x="160" y="172" text-anchor="middle" font-family="Inter, sans-serif" font-weight="700" font-size="9" letter-spacing="1.5" fill="#6b6b6b">HAULER 8.5 × 20</text>
</svg>