<svg xmlns="http://www.w3.org/2000/svg" viewBox="0 0 320 180" width="320" height="180">
  
  <defs>
    <pattern id="cargo-diamond" width="6" height="6" patternUnits="userSpaceOnUse">
      <rect width="6" height="6" fill="#f4f6f9"></rect>
      <path d="M0 3 L3 0 L6 3 L3 6 Z" fill="#e6e9ee"></path>
    </pattern>
  </defs>
  
  <line x1="0" y1="152" x2="320" y2="152" stroke="#cccccc" stroke-width="1"></line>
  
  <rect x="36" y="44" width="240" height="92" fill="url(#cargo-diamond)" stroke="#16264a" stroke-width="2"></rect>
  
  <line x1="36" y1="60" x2="276" y2="60" stroke="#cccccc" stroke-width="1"></line>
  
  <rect x="80" y="64" width="44" height="60" fill="none" stroke="#16264a" stroke-width="1.5"></rect>
  <circle cx="118" cy="94" r="2" fill="#16264a"></circle>
  
  <rect x="220" y="56" width="56" height="78" fill="none" stroke="#16264a" stroke-width="1.5"></rect>
  <line x1="248" y1="56" x2="248" y2="134" stroke="#cccccc" stroke-width="1"></line>
  
  <line x1="36" y1="120" x2="6" y2="148" stroke="#16264a" stroke-width="2"></line>
  <rect x="0" y="142" width="14" height="10" fill="#16264a"></rect>
  
  <circle cx="118" cy="146" r="14" fill="#16264a"></circle>
  <circle cx="118" cy="146" r="5" fill="#f4f6f9"></circle>
  <circle cx="178" cy="146" r="14" fill="#16264a"></circle>
  <circle cx="178" cy="146" r="5" fill="#f4f6f9"></circle>
  
  <path d="M100 146 Q148 116 196 146" fill="none" stroke="#16264a" stroke-width="1.5"></path>
  
  <rect x="44" y="68" width="3" height="18" fill="#1568be"></rect>
  <text x="52" y="82" font-family="Inter, sans-serif" font-weight="700" font-size="11" letter-spacing="1" fill="#16264a">TVR</text>
  
  <text x="160" y="172" text-anchor="middle" font-family="Inter, sans-serif" font-weight="700" font-size="9" letter-spacing="1.5" fill="#6b6b6b">CARGO 8.5 × 16</text>
</svg>